<?xml version="1.0" standalone="no"?>
<!DOCTYPE svg PUBLIC "-//W3C//DTD SVG 20010904//EN"
 "http://www.w3.org/TR/2001/REC-SVG-20010904/DTD/svg10.dtd">
<svg version="1.0" xmlns="http://www.w3.org/2000/svg"
 width="512.000000pt" height="512.000000pt" viewBox="0 0 512.000000 512.000000"
 preserveAspectRatio="xMidYMid meet">
<metadata>
Created by potrace 1.11, written by Peter Selinger 2001-2013
</metadata>
<g transform="translate(0.000000,512.000000) scale(0.100000,-0.100000)"
fill="#000000" stroke="none">
<path d="M345 5106 c-87 -22 -148 -58 -212 -123 -57 -57 -75 -85 -114 -183
-18 -45 -18 -213 0 -260 47 -124 134 -226 228 -270 l53 -25 0 -335 c1 -369 1
-372 65 -422 22 -17 42 -23 81 -23 65 0 99 19 130 71 l24 41 0 335 0 334 53
24 c68 31 166 129 197 198 l24 52 333 0 c308 0 337 1 371 19 43 22 82 84 82
130 0 63 -55 133 -113 145 -16 3 -174 6 -351 6 l-322 0 -24 53 c-44 97 -161
195 -275 229 -53 16 -177 18 -230 4z"/>
<path d="M4560 5106 c-123 -35 -242 -131 -290 -233 l-25 -53 -334 0 c-327 0
-334 0 -373 -22 -45 -25 -78 -80 -78 -128 0 -62 55 -132 113 -144 16 -3 174
-6 351 -6 l322 0 24 -52 c14 -31 49 -78 84 -114 36 -35 83 -70 114 -84 l52
-24 0 -333 c0 -379 2 -388 78 -431 50 -28 94 -28 143 0 76 42 74 32 77 418 l3
345 51 25 c101 50 185 146 223 255 21 59 28 184 14 246 -32 144 -152 275 -295
324 -63 21 -196 27 -254 11z"/>
<path d="M2037 4799 c-42 -22 -76 -82 -77 -132 0 -47 36 -105 80 -127 38 -19
58 -20 520 -20 462 0 482 1 520 20 44 22 80 80 80 127 -1 52 -35 110 -79 132
-39 20 -55 21 -523 21 -465 -1 -484 -2 -521 -21z"/>
<path d="M976 4196 c-22 -13 -47 -39 -57 -57 -17 -32 -18 -110 -19 -1565 0
-842 3 -1545 6 -1561 7 -37 39 -75 81 -97 29 -15 161 -16 1573 -16 1403 0
1544 1 1573 16 42 22 61 42 75 83 9 26 12 415 12 1568 0 1405 -1 1537 -16
1566 -22 42 -60 74 -97 81 -16 3 -719 6 -1561 6 l-1531 0 -39 -24z"/>
<path d="M390 3147 c-35 -16 -55 -37 -74 -74 -14 -28 -16 -89 -16 -513 0 -466
1 -482 21 -521 39 -77 155 -101 220 -46 60 50 59 41 59 568 0 480 0 481 -22
521 -36 63 -126 95 -188 65z"/>
<path d="M4603 3142 c-17 -9 -42 -30 -55 -47 l-23 -29 -3 -491 c-3 -557 -5
-545 73 -591 49 -28 80 -30 135 -8 29 12 48 29 65 59 l25 42 0 482 c0 467 -1
483 -21 522 -34 69 -128 98 -196 61z"/>
<path d="M389 1647 c-33 -15 -52 -35 -73 -74 -14 -28 -16 -77 -16 -365 l0
-333 -52 -24 c-66 -30 -166 -130 -197 -197 -40 -85 -50 -132 -47 -224 5 -130
56 -236 153 -319 140 -119 337 -142 503 -59 64 32 162 133 190 195 l23 52 346
3 c346 3 347 3 376 26 63 50 80 122 46 191 -40 77 -33 76 -422 79 l-346 3 -23
52 c-31 69 -131 169 -198 198 l-52 23 0 328 c0 387 -2 398 -87 442 -37 18 -86
20 -124 3z"/>
<path d="M4622 1653 c-33 -7 -88 -66 -96 -103 -3 -18 -6 -177 -6 -354 l0 -322
-52 -24 c-67 -30 -166 -128 -198 -197 l-25 -53 -333 0 c-328 0 -335 0 -374
-22 -43 -24 -78 -80 -78 -123 0 -65 55 -137 113 -149 16 -3 174 -6 351 -6
l321 0 22 -48 c46 -100 153 -192 268 -230 45 -15 83 -19 151 -18 82 2 100 6
167 38 41 20 93 53 116 74 148 133 190 350 105 530 -35 74 -133 174 -201 205
l-53 24 0 333 c0 375 0 374 -72 430 -18 14 -90 23 -126 15z"/>
<path d="M2038 579 c-41 -21 -78 -80 -78 -123 0 -52 31 -106 75 -132 l43 -25
493 3 c466 3 496 4 522 22 34 23 67 85 67 126 0 50 -35 107 -80 130 -38 19
-57 20 -522 20 -461 -1 -485 -2 -520 -21z"/>
</g>
</svg>
